<svg width="71" height="102" viewBox="0 0 71 102" fill="none" xmlns="http://www.w3.org/2000/svg">
<path d="M69.2436 1.94501L31.5098 11.5203V90.0374L69.2436 99.9957" stroke="#BC1E69" stroke-width="2.33405"/>
<path d="M39.29 50.5873V16.4994L60.6855 11.5203V50.5873H39.29Z" stroke="#BC1E69" stroke-width="2.33405"/>
<path d="M39.6787 33.7349L60.2962 31.4368" stroke="#BC1E69" stroke-width="2.33405"/>
<path d="M49.793 14.2014V50.5873" stroke="#BC1E69" stroke-width="2.33405"/>
<path d="M39.6787 58.2352C40.6978 58.2352 41.4932 58.9101 41.9932 59.7303C42.5014 60.5643 42.791 61.6671 42.791 62.8436C42.791 64.0202 42.5014 65.1229 41.9932 65.9569C41.4932 66.7771 40.6978 67.452 39.6787 67.452C38.6596 67.452 37.8642 66.7771 37.3643 65.9569C36.856 65.1229 36.5664 64.0202 36.5664 62.8436C36.5664 61.6671 36.856 60.5643 37.3643 59.7303C37.8642 58.9101 38.6596 58.2353 39.6787 58.2352Z" stroke="#BC1E69" stroke-width="1.55603"/>
<rect x="1.16703" y="1.16703" width="67.6875" height="98.8082" stroke="#BC1E69" stroke-width="2.33405"/>
<path d="M11.6828 18.0047H16.5267V19.3055H11.6828V18.0047ZM15.8763 18.0047H17.1772C17.1772 18.5067 17.2 19.1001 17.2456 19.7848C17.2913 20.4694 17.3883 21.2054 17.5366 21.9928C17.685 22.7687 17.9132 23.5789 18.2213 24.4233C18.5294 25.2677 18.9459 26.1121 19.4708 26.9565C19.9957 27.7895 20.6518 28.5997 21.4391 29.3871C22.2379 30.1744 23.2021 30.899 24.3318 31.5608C24.2405 31.6407 24.1207 31.7434 23.9724 31.8689C23.8354 32.0059 23.7042 32.1428 23.5787 32.2797C23.4646 32.4281 23.3676 32.5536 23.2877 32.6563C22.1466 31.9602 21.1653 31.1957 20.3437 30.3627C19.5335 29.5183 18.8546 28.6396 18.3068 27.7268C17.7705 26.8139 17.3369 25.901 17.006 24.9881C16.6865 24.0639 16.4412 23.1738 16.27 22.318C16.1102 21.4508 16.0018 20.6463 15.9448 19.9046C15.8991 19.1629 15.8763 18.5296 15.8763 18.0047ZM15.3799 21.3595L16.8348 21.6162C16.424 23.3507 15.8877 24.914 15.2259 26.3061C14.5755 27.6982 13.7824 28.9249 12.8467 29.9861C11.9224 31.0359 10.827 31.9317 9.56038 32.6734C9.49191 32.5821 9.38351 32.4737 9.23517 32.3482C9.09823 32.2227 8.94989 32.0914 8.79014 31.9545C8.6418 31.829 8.51057 31.7263 8.39646 31.6464C10.3021 30.6423 11.814 29.2844 12.9323 27.5727C14.0506 25.8497 14.8665 23.7786 15.3799 21.3595ZM9.44056 47.8419C10.4447 47.8077 11.6086 47.7735 12.9323 47.7392C14.2674 47.6936 15.6823 47.6423 17.1772 47.5852C18.672 47.5281 20.1611 47.4654 21.6445 47.3969L21.6103 48.5779C20.1725 48.6464 18.7233 48.7149 17.2627 48.7833C15.8022 48.8518 14.4157 48.9089 13.1035 48.9545C11.7912 49.0116 10.6273 49.0629 9.61173 49.1086L9.44056 47.8419ZM9.30363 42.553H23.4931V43.7682H9.30363V42.553ZM12.2305 39.2666H20.395V40.4648H12.2305V39.2666ZM13.9935 43.3232L15.4313 43.734C15.1688 44.2703 14.8836 44.8409 14.5755 45.4456C14.2788 46.039 13.9764 46.6153 13.6683 47.1744C13.3716 47.7335 13.0806 48.2299 12.7954 48.6635L11.6657 48.2699C11.9396 47.8248 12.2191 47.3113 12.5044 46.7294C12.8011 46.1474 13.0806 45.5598 13.3431 44.9664C13.6055 44.3616 13.8224 43.8139 13.9935 43.3232ZM18.0501 45.1376L19.1456 44.5385C19.6819 44.9835 20.2068 45.4742 20.7203 46.0105C21.2452 46.5468 21.7244 47.0774 22.158 47.6023C22.5916 48.1272 22.9397 48.6065 23.2021 49.0401L22.0553 49.759C21.7929 49.3254 21.4449 48.8404 21.0112 48.3041C20.5776 47.7564 20.1041 47.2029 19.5906 46.6438C19.0885 46.0847 18.575 45.5826 18.0501 45.1376ZM16.27 35.2272C15.8136 35.9118 15.2088 36.6193 14.4557 37.3496C13.714 38.0685 12.8867 38.7531 11.9738 39.4036C11.0723 40.054 10.1366 40.6245 9.1667 41.1152C9.10965 41.0011 9.03547 40.8813 8.94419 40.7558C8.86431 40.6302 8.77302 40.5047 8.67033 40.3792C8.57904 40.2537 8.48775 40.1453 8.39646 40.054C9.38921 39.5861 10.342 39.0213 11.2549 38.3595C12.1792 37.6862 13.0122 36.973 13.7539 36.2199C14.507 35.4554 15.1004 34.708 15.534 33.9777H16.8691C17.3255 34.6167 17.8447 35.2329 18.4267 35.8262C19.0086 36.4082 19.6305 36.9559 20.2923 37.4694C20.9542 37.9829 21.6274 38.445 22.3121 38.8558C23.0081 39.2552 23.6985 39.5918 24.3832 39.8657C24.2348 40.0255 24.0865 40.2137 23.9381 40.4305C23.8012 40.6359 23.67 40.8299 23.5445 41.0125C22.6658 40.5903 21.7644 40.0711 20.8401 39.4549C19.9272 38.8273 19.0714 38.1484 18.2726 37.4181C17.4739 36.6878 16.8063 35.9575 16.27 35.2272ZM18.5122 51.7821C18.5122 51.8392 18.5008 51.9419 18.478 52.0902C18.4666 52.2386 18.4552 52.3869 18.4438 52.5353C18.4438 52.6722 18.4381 52.7806 18.4267 52.8605C18.4153 53.0773 18.4095 53.374 18.4095 53.7505C18.4095 54.1271 18.4095 54.5379 18.4095 54.9829C18.4095 55.4279 18.4095 55.8787 18.4095 56.3351C18.421 56.7915 18.4267 57.2194 18.4267 57.6188C18.4381 58.0182 18.4438 58.3548 18.4438 58.6287L17.1258 57.9783C17.1258 57.8185 17.1258 57.5789 17.1258 57.2594C17.1258 56.9285 17.1258 56.5519 17.1258 56.1297C17.1258 55.6961 17.1201 55.2682 17.1087 54.846C17.1087 54.4238 17.103 54.0358 17.0916 53.6821C17.0802 53.3283 17.0688 53.0545 17.0574 52.8605C17.0459 52.6323 17.0288 52.4155 17.006 52.2101C16.9832 51.9932 16.9661 51.8506 16.9547 51.7821H18.5122ZM9.42345 54.1613C9.89129 54.1613 10.4219 54.1556 11.0153 54.1442C11.6086 54.1214 12.2362 54.0986 12.8981 54.0757C13.5713 54.0529 14.2503 54.0358 14.9349 54.0244C15.6196 54.013 16.2757 54.0016 16.9033 53.9902C17.5423 53.9787 18.13 53.973 18.6663 53.973C19.1798 53.973 19.6933 53.973 20.2068 53.973C20.7203 53.973 21.1995 53.973 21.6445 53.973C22.101 53.973 22.5004 53.9787 22.8427 53.9902C23.1964 53.9902 23.476 53.9902 23.6814 53.9902L23.6643 55.2568C23.185 55.2339 22.5403 55.2168 21.7301 55.2054C20.9314 55.1826 19.9044 55.1712 18.6492 55.1712C17.9075 55.1712 17.1315 55.1826 16.3213 55.2054C15.5226 55.2168 14.7181 55.2339 13.9079 55.2568C13.0978 55.2796 12.3104 55.3138 11.5459 55.3595C10.7928 55.3937 10.0967 55.4336 9.45768 55.4793L9.42345 54.1613ZM18.4095 59.1422C18.4095 59.8953 18.2954 60.5286 18.0672 61.0421C17.8504 61.5556 17.5423 61.9379 17.1429 62.1889C16.755 62.4399 16.2985 62.5655 15.7736 62.5655C15.4199 62.5655 15.0719 62.5084 14.7295 62.3943C14.3986 62.2688 14.0962 62.0862 13.8224 61.8466C13.5599 61.5955 13.3488 61.2931 13.189 60.9394C13.0407 60.5743 12.9665 60.1635 12.9665 59.707C12.9665 59.1365 13.1035 58.6287 13.3773 58.1837C13.6512 57.7386 14.0163 57.3849 14.4728 57.1225C14.9406 56.86 15.4427 56.7288 15.979 56.7288C16.6523 56.7288 17.2057 56.8828 17.6393 57.1909C18.0843 57.4876 18.421 57.8984 18.6492 58.4233C18.8774 58.9368 18.9915 59.5245 18.9915 60.1863C18.9915 60.7568 18.9059 61.3388 18.7348 61.9322C18.575 62.5255 18.3011 63.0961 17.9132 63.6438C17.5366 64.1915 17.0174 64.6936 16.3556 65.15C15.7052 65.5951 14.8779 65.9659 13.8737 66.2626L12.7269 65.1329C13.5029 64.9503 14.1989 64.7164 14.8151 64.4311C15.4313 64.1459 15.9505 63.7978 16.3727 63.3871C16.7949 62.9763 17.1144 62.497 17.3312 61.9493C17.5594 61.4016 17.6735 60.7739 17.6735 60.0665C17.6735 59.2905 17.5081 58.7314 17.1772 58.3891C16.8463 58.0467 16.4469 57.8756 15.979 57.8756C15.6823 57.8756 15.4028 57.9497 15.1403 58.0981C14.8779 58.235 14.6611 58.4404 14.4899 58.7143C14.3301 58.9881 14.2503 59.3134 14.2503 59.6899C14.2503 60.2262 14.4214 60.6427 14.7638 60.9394C15.1175 61.2361 15.5283 61.3844 15.9961 61.3844C16.3499 61.3844 16.6523 61.2874 16.9033 61.0935C17.1543 60.8881 17.3312 60.5857 17.4339 60.1863C17.548 59.7755 17.5594 59.2677 17.4681 58.6629L18.4095 59.1422ZM11.854 69.7235C12.048 69.7464 12.2534 69.7635 12.4702 69.7749C12.6984 69.7863 12.8981 69.792 13.0692 69.792C13.2404 69.792 13.52 69.7863 13.9079 69.7749C14.3073 69.7635 14.7523 69.7521 15.243 69.7407C15.7451 69.7178 16.2415 69.7007 16.7321 69.6893C17.2342 69.6665 17.6792 69.6437 18.0672 69.6208C18.4666 69.598 18.7576 69.5809 18.9402 69.5695C19.1912 69.5467 19.3852 69.5239 19.5221 69.501C19.659 69.4782 19.7732 69.4554 19.8644 69.4326L20.6518 70.4253C20.5035 70.528 20.3437 70.6364 20.1725 70.7505C20.0128 70.8646 19.853 70.9902 19.6933 71.1271C19.4765 71.2868 19.1855 71.5208 18.8203 71.8289C18.4552 72.1255 18.0501 72.4622 17.6051 72.8387C17.1715 73.2039 16.7436 73.5633 16.3213 73.9171C15.8991 74.2708 15.5169 74.5903 15.1746 74.8756C15.5739 74.7386 15.9733 74.6474 16.3727 74.6017C16.7835 74.5447 17.1772 74.5161 17.5537 74.5161C18.5008 74.5161 19.3395 74.693 20.0698 75.0467C20.8115 75.3891 21.3878 75.8626 21.7986 76.4674C22.2208 77.0722 22.4319 77.7625 22.4319 78.5385C22.4319 79.4514 22.1923 80.2501 21.713 80.9348C21.2337 81.6194 20.5548 82.1443 19.6762 82.5095C18.7975 82.886 17.7534 83.0743 16.5439 83.0743C15.7679 83.0743 15.1004 82.9716 14.5412 82.7662C13.9821 82.5608 13.5485 82.2756 13.2404 81.9104C12.9437 81.5453 12.7954 81.1231 12.7954 80.6438C12.7954 80.2558 12.9038 79.8907 13.1206 79.5483C13.3374 79.206 13.6455 78.9322 14.0449 78.7268C14.4443 78.5214 14.9064 78.4187 15.4313 78.4187C16.1958 78.4187 16.8291 78.5784 17.3312 78.8979C17.8333 79.206 18.2213 79.6168 18.4951 80.1303C18.769 80.6324 18.923 81.1744 18.9573 81.7564L17.7249 81.9618C17.6792 81.2315 17.451 80.6324 17.0402 80.1645C16.6409 79.6853 16.0988 79.4456 15.4142 79.4456C15.0262 79.4456 14.701 79.5541 14.4385 79.7709C14.1761 79.9877 14.0449 80.2444 14.0449 80.5411C14.0449 80.9519 14.256 81.2771 14.6782 81.5167C15.1004 81.7564 15.6481 81.8762 16.3213 81.8762C17.2913 81.8762 18.13 81.7449 18.8375 81.4825C19.5563 81.22 20.1041 80.8378 20.4806 80.3357C20.8686 79.8336 21.0626 79.2288 21.0626 78.5214C21.0626 77.9622 20.8971 77.4601 20.5662 77.0151C20.2353 76.5701 19.7789 76.2221 19.1969 75.971C18.6264 75.7086 17.9702 75.5773 17.2285 75.5773C16.5096 75.5773 15.8649 75.6572 15.2944 75.817C14.7238 75.9653 14.1875 76.1821 13.6854 76.4674C13.1948 76.7527 12.7041 77.1121 12.2134 77.5457C11.7342 77.9679 11.2207 78.4529 10.6729 79.0006L9.69731 77.9908C10.051 77.7055 10.439 77.386 10.8612 77.0322C11.2948 76.6671 11.7285 76.3076 12.1621 75.9539C12.5957 75.5888 12.9951 75.2521 13.3602 74.944C13.7368 74.6245 14.0506 74.3621 14.3016 74.1567C14.5412 73.9627 14.8379 73.7174 15.1917 73.4207C15.5568 73.1126 15.9334 72.7931 16.3213 72.4622C16.7093 72.1312 17.0745 71.8174 17.4168 71.5208C17.7705 71.2241 18.0558 70.9845 18.2726 70.8019C18.09 70.8019 17.8219 70.8133 17.4681 70.8361C17.1144 70.8475 16.7207 70.8646 16.2871 70.8875C15.8535 70.8989 15.4199 70.916 14.9863 70.9388C14.5641 70.9616 14.1761 70.9845 13.8224 71.0073C13.48 71.0187 13.2176 71.0301 13.035 71.0415C12.8524 71.0529 12.6641 71.0643 12.4702 71.0757C12.2762 71.0871 12.0879 71.11 11.9053 71.1442L11.854 69.7235Z" fill="#BC1E69"/>
</svg>
