<svg width="90" height="130" viewBox="0 0 90 130" fill="none" xmlns="http://www.w3.org/2000/svg">
<path d="M89 2.5L40.5 14.7559V115.254L89 128" stroke="#8ACBD8" stroke-width="3"/>
<path d="M50.5 64.7598V21.1289L78 14.7559V64.7598H50.5Z" stroke="#8ACBD8" stroke-width="3"/>
<path d="M51 43.1895L77.5 40.248" stroke="#8ACBD8" stroke-width="3"/>
<path d="M64 18.1875V64.7598" stroke="#8ACBD8" stroke-width="3"/>
<path d="M51 74.5449C52.3079 74.5449 53.3311 75.4075 53.9746 76.459C54.6284 77.5274 55 78.9401 55 80.4473C55 81.9545 54.6284 83.3671 53.9746 84.4355C53.3311 85.4871 52.3079 86.3496 51 86.3496C49.6921 86.3496 48.6689 85.4871 48.0254 84.4355C47.3716 83.3671 47 81.9545 47 80.4473C47 78.9401 47.3716 77.5274 48.0254 76.459C48.6689 75.4075 49.6921 74.5449 51 74.5449Z" stroke="#8ACBD8" stroke-width="2"/>
<rect x="1.5" y="1.5" width="87" height="127" stroke="#8ACBD8" stroke-width="3"/>
<path d="M15.016 23.862H21.242V25.534H15.016V23.862ZM20.406 23.862H22.078C22.078 24.5073 22.1073 25.27 22.166 26.15C22.2247 27.03 22.3493 27.976 22.54 28.988C22.7307 29.9853 23.024 31.0267 23.42 32.112C23.816 33.1973 24.3513 34.2827 25.026 35.368C25.7007 36.4387 26.544 37.48 27.556 38.492C28.5827 39.504 29.822 40.4353 31.274 41.286C31.1567 41.3887 31.0027 41.5207 30.812 41.682C30.636 41.858 30.4673 42.034 30.306 42.21C30.1593 42.4007 30.0347 42.562 29.932 42.694C28.4653 41.7993 27.204 40.8167 26.148 39.746C25.1067 38.6607 24.234 37.5313 23.53 36.358C22.8407 35.1847 22.2833 34.0113 21.858 32.838C21.4473 31.65 21.132 30.506 20.912 29.406C20.7067 28.2913 20.5673 27.2573 20.494 26.304C20.4353 25.3507 20.406 24.5367 20.406 23.862ZM19.768 28.174L21.638 28.504C21.11 30.7333 20.4207 32.7427 19.57 34.532C18.734 36.3213 17.7147 37.898 16.512 39.262C15.324 40.6113 13.916 41.7627 12.288 42.716C12.2 42.5987 12.0607 42.4593 11.87 42.298C11.694 42.1367 11.5033 41.968 11.298 41.792C11.1073 41.6307 10.9387 41.4987 10.792 41.396C13.2413 40.1053 15.1847 38.36 16.622 36.16C18.0593 33.9453 19.108 31.2833 19.768 28.174ZM12.134 62.362C13.4247 62.318 14.9207 62.274 16.622 62.23C18.338 62.1713 20.1567 62.1053 22.078 62.032C23.9993 61.9587 25.9133 61.878 27.82 61.79L27.776 63.308C25.928 63.396 24.0653 63.484 22.188 63.572C20.3107 63.66 18.5287 63.7333 16.842 63.792C15.1553 63.8653 13.6593 63.9313 12.354 63.99L12.134 62.362ZM11.958 55.564H30.196V57.126H11.958V55.564ZM15.72 51.34H26.214V52.88H15.72V51.34ZM17.986 56.554L19.834 57.082C19.4967 57.7713 19.13 58.5047 18.734 59.282C18.3527 60.0447 17.964 60.7853 17.568 61.504C17.1867 62.2227 16.8127 62.8607 16.446 63.418L14.994 62.912C15.346 62.34 15.7053 61.68 16.072 60.932C16.4533 60.184 16.8127 59.4287 17.15 58.666C17.4873 57.8887 17.766 57.1847 17.986 56.554ZM23.2 58.886L24.608 58.116C25.2973 58.688 25.972 59.3187 26.632 60.008C27.3067 60.6973 27.9227 61.3793 28.48 62.054C29.0373 62.7287 29.4847 63.3447 29.822 63.902L28.348 64.826C28.0107 64.2687 27.5633 63.6453 27.006 62.956C26.4487 62.252 25.84 61.5407 25.18 60.822C24.5347 60.1033 23.8747 59.458 23.2 58.886ZM20.912 46.148C20.3253 47.028 19.548 47.9373 18.58 48.876C17.6267 49.8 16.5633 50.68 15.39 51.516C14.2313 52.352 13.0287 53.0853 11.782 53.716C11.7087 53.5693 11.6133 53.4153 11.496 53.254C11.3933 53.0927 11.276 52.9313 11.144 52.77C11.0267 52.6087 10.9093 52.4693 10.792 52.352C12.068 51.7507 13.2927 51.0247 14.466 50.174C15.654 49.3087 16.7247 48.392 17.678 47.424C18.646 46.4413 19.4087 45.4807 19.966 44.542H21.682C22.2687 45.3633 22.936 46.1553 23.684 46.918C24.432 47.666 25.2313 48.37 26.082 49.03C26.9327 49.69 27.798 50.284 28.678 50.812C29.5727 51.3253 30.46 51.758 31.34 52.11C31.1493 52.3153 30.9587 52.5573 30.768 52.836C30.592 53.1 30.4233 53.3493 30.262 53.584C29.1327 53.0413 27.974 52.374 26.786 51.582C25.6127 50.7753 24.5127 49.9027 23.486 48.964C22.4593 48.0253 21.6013 47.0867 20.912 46.148ZM23.794 67.576C23.794 67.6493 23.7793 67.7813 23.75 67.972C23.7353 68.1627 23.7207 68.3533 23.706 68.544C23.706 68.72 23.6987 68.8593 23.684 68.962C23.6693 69.2407 23.662 69.622 23.662 70.106C23.662 70.59 23.662 71.118 23.662 71.69C23.662 72.262 23.662 72.8413 23.662 73.428C23.6767 74.0147 23.684 74.5647 23.684 75.078C23.6987 75.5913 23.706 76.024 23.706 76.376L22.012 75.54C22.012 75.3347 22.012 75.0267 22.012 74.616C22.012 74.1907 22.012 73.7067 22.012 73.164C22.012 72.6067 22.0047 72.0567 21.99 71.514C21.99 70.9713 21.9827 70.4727 21.968 70.018C21.9533 69.5633 21.9387 69.2113 21.924 68.962C21.9093 68.6687 21.8873 68.39 21.858 68.126C21.8287 67.8473 21.8067 67.664 21.792 67.576H23.794ZM12.112 70.634C12.7133 70.634 13.3953 70.6267 14.158 70.612C14.9207 70.5827 15.7273 70.5533 16.578 70.524C17.4433 70.4947 18.316 70.4727 19.196 70.458C20.076 70.4433 20.9193 70.4287 21.726 70.414C22.5473 70.3993 23.3027 70.392 23.992 70.392C24.652 70.392 25.312 70.392 25.972 70.392C26.632 70.392 27.248 70.392 27.82 70.392C28.4067 70.392 28.92 70.3993 29.36 70.414C29.8147 70.414 30.174 70.414 30.438 70.414L30.416 72.042C29.8 72.0127 28.9713 71.9907 27.93 71.976C26.9033 71.9467 25.5833 71.932 23.97 71.932C23.0167 71.932 22.0193 71.9467 20.978 71.976C19.9513 71.9907 18.9173 72.0127 17.876 72.042C16.8347 72.0713 15.8227 72.1153 14.84 72.174C13.872 72.218 12.9773 72.2693 12.156 72.328L12.112 70.634ZM23.662 77.036C23.662 78.004 23.5153 78.818 23.222 79.478C22.9433 80.138 22.5473 80.6293 22.034 80.952C21.5353 81.2747 20.9487 81.436 20.274 81.436C19.8193 81.436 19.372 81.3627 18.932 81.216C18.5067 81.0547 18.118 80.82 17.766 80.512C17.4287 80.1893 17.1573 79.8007 16.952 79.346C16.7613 78.8767 16.666 78.3487 16.666 77.762C16.666 77.0287 16.842 76.376 17.194 75.804C17.546 75.232 18.0153 74.7773 18.602 74.44C19.2033 74.1027 19.8487 73.934 20.538 73.934C21.4033 73.934 22.1147 74.132 22.672 74.528C23.244 74.9093 23.6767 75.4373 23.97 76.112C24.2633 76.772 24.41 77.5273 24.41 78.378C24.41 79.1113 24.3 79.8593 24.08 80.622C23.8747 81.3847 23.5227 82.118 23.024 82.822C22.54 83.526 21.8727 84.1713 21.022 84.758C20.186 85.33 19.1227 85.8067 17.832 86.188L16.358 84.736C17.3553 84.5013 18.25 84.2007 19.042 83.834C19.834 83.4673 20.5013 83.02 21.044 82.492C21.5867 81.964 21.9973 81.348 22.276 80.644C22.5693 79.94 22.716 79.1333 22.716 78.224C22.716 77.2267 22.5033 76.508 22.078 76.068C21.6527 75.628 21.1393 75.408 20.538 75.408C20.1567 75.408 19.7973 75.5033 19.46 75.694C19.1227 75.87 18.844 76.134 18.624 76.486C18.4187 76.838 18.316 77.256 18.316 77.74C18.316 78.4293 18.536 78.9647 18.976 79.346C19.4307 79.7273 19.9587 79.918 20.56 79.918C21.0147 79.918 21.4033 79.7933 21.726 79.544C22.0487 79.28 22.276 78.8913 22.408 78.378C22.5547 77.85 22.5693 77.1973 22.452 76.42L23.662 77.036ZM15.236 90.786C15.4853 90.8153 15.7493 90.8373 16.028 90.852C16.3213 90.8667 16.578 90.874 16.798 90.874C17.018 90.874 17.3773 90.8667 17.876 90.852C18.3893 90.8373 18.9613 90.8227 19.592 90.808C20.2373 90.7787 20.8753 90.7567 21.506 90.742C22.1513 90.7127 22.7233 90.6833 23.222 90.654C23.7353 90.6247 24.1093 90.6027 24.344 90.588C24.6667 90.5587 24.916 90.5293 25.092 90.5C25.268 90.4707 25.4147 90.4413 25.532 90.412L26.544 91.688C26.3533 91.82 26.148 91.9593 25.928 92.106C25.7227 92.2527 25.5173 92.414 25.312 92.59C25.0333 92.7953 24.6593 93.096 24.19 93.492C23.7207 93.8733 23.2 94.306 22.628 94.79C22.0707 95.2593 21.5207 95.7213 20.978 96.176C20.4353 96.6307 19.944 97.0413 19.504 97.408C20.0173 97.232 20.5307 97.1147 21.044 97.056C21.572 96.9827 22.078 96.946 22.562 96.946C23.7793 96.946 24.8573 97.1733 25.796 97.628C26.7493 98.068 27.49 98.6767 28.018 99.454C28.5607 100.231 28.832 101.119 28.832 102.116C28.832 103.289 28.524 104.316 27.908 105.196C27.292 106.076 26.4193 106.751 25.29 107.22C24.1607 107.704 22.8187 107.946 21.264 107.946C20.2667 107.946 19.4087 107.814 18.69 107.55C17.9713 107.286 17.414 106.919 17.018 106.45C16.6367 105.981 16.446 105.438 16.446 104.822C16.446 104.323 16.5853 103.854 16.864 103.414C17.1427 102.974 17.5387 102.622 18.052 102.358C18.5653 102.094 19.1593 101.962 19.834 101.962C20.8167 101.962 21.6307 102.167 22.276 102.578C22.9213 102.974 23.42 103.502 23.772 104.162C24.124 104.807 24.322 105.504 24.366 106.252L22.782 106.516C22.7233 105.577 22.43 104.807 21.902 104.206C21.3887 103.59 20.692 103.282 19.812 103.282C19.3133 103.282 18.8953 103.421 18.558 103.7C18.2207 103.979 18.052 104.309 18.052 104.69C18.052 105.218 18.3233 105.636 18.866 105.944C19.4087 106.252 20.1127 106.406 20.978 106.406C22.2247 106.406 23.3027 106.237 24.212 105.9C25.136 105.563 25.84 105.071 26.324 104.426C26.8227 103.781 27.072 103.003 27.072 102.094C27.072 101.375 26.8593 100.73 26.434 100.158C26.0087 99.586 25.422 99.1387 24.674 98.816C23.9407 98.4787 23.0973 98.31 22.144 98.31C21.22 98.31 20.3913 98.4127 19.658 98.618C18.9247 98.8087 18.2353 99.0873 17.59 99.454C16.9593 99.8207 16.3287 100.283 15.698 100.84C15.082 101.383 14.422 102.006 13.718 102.71L12.464 101.412C12.9187 101.045 13.4173 100.635 13.96 100.18C14.5173 99.7107 15.0747 99.2487 15.632 98.794C16.1893 98.3247 16.7027 97.892 17.172 97.496C17.656 97.0853 18.0593 96.748 18.382 96.484C18.69 96.2347 19.0713 95.9193 19.526 95.538C19.9953 95.142 20.4793 94.7313 20.978 94.306C21.4767 93.8807 21.946 93.4773 22.386 93.096C22.8407 92.7147 23.2073 92.4067 23.486 92.172C23.2513 92.172 22.9067 92.1867 22.452 92.216C21.9973 92.2307 21.4913 92.2527 20.934 92.282C20.3767 92.2967 19.8193 92.3187 19.262 92.348C18.7193 92.3773 18.2207 92.4067 17.766 92.436C17.326 92.4507 16.9887 92.4653 16.754 92.48C16.5193 92.4947 16.2773 92.5093 16.028 92.524C15.7787 92.5387 15.5367 92.568 15.302 92.612L15.236 90.786Z" fill="#8ACBD8"/>
</svg>
